<svg width="38" height="117" viewBox="0 0 38 117" fill="none" xmlns="http://www.w3.org/2000/svg">
<mask id="mask0_242_849" style="mask-type:alpha" maskUnits="userSpaceOnUse" x="4" y="0" width="34" height="109">
<rect x="4" width="34" height="109" fill="#D9D9D9"/>
</mask>
<g mask="url(#mask0_242_849)">
<path d="M-368.134 -100.5H-16.9048C-4.00018 -100.5 6.46103 -90.0388 6.46103 -77.1342V2.76175C6.46103 10.2024 9.60495 17.2966 15.1172 22.2944L27.9294 33.9108C32.8145 38.3399 35.6006 44.6269 35.6006 51.2209V81.191C35.6006 88.4093 29.7491 94.2608 22.5309 94.2608C13.6557 94.2608 6.46103 101.456 6.46103 110.331V112.662C6.46103 121.168 -0.434204 128.063 -8.93994 128.063H-368.134C-381.039 128.063 -391.5 117.602 -391.5 104.697V-77.1342C-391.5 -90.0388 -381.039 -100.5 -368.134 -100.5Z" fill="#215CB8" stroke="black" stroke-width="3"/>
<ellipse cx="21.1715" cy="46.0278" rx="6.60498" ry="6.21645" transform="rotate(-90 21.1715 46.0278)" fill="#F19090"/>
<rect x="14.9551" y="84.4922" width="27.197" height="12.4329" rx="6.21645" transform="rotate(-90 14.9551 84.4922)" fill="#2EB335"/>
</g>
</svg>
