<svg width="370" height="214" viewBox="0 0 370 214" fill="none" xmlns="http://www.w3.org/2000/svg">
<g clip-path="url(#clip0_210_617)">
<path d="M275.474 0H94.5261C81.533 0 71 12.4677 71 27.8473V86.1527C71 101.532 81.533 114 94.5261 114H275.474C288.467 114 299 101.532 299 86.1527V27.8473C299 12.4677 288.467 0 275.474 0Z" fill="#ED323D"/>
<path d="M0 81C0 63.3269 14.3269 49 32 49H338C355.673 49 370 63.3269 370 81V145C370 162.673 355.673 177 338 177H224.962C217.248 177 209.794 179.786 203.971 184.846L180.029 205.654C174.206 210.714 166.752 213.5 159.038 213.5H93.75C83.6708 213.5 75.5 205.329 75.5 195.25C75.5 185.171 67.3292 177 57.25 177H32C14.3269 177 0 162.673 0 145V81Z" fill="#4484E0"/>
<path d="M32 52H338C354.016 52 367 64.9837 367 81V145C367 161.016 354.016 174 338 174H224.962C216.525 174 208.372 177.048 202.003 182.582L178.061 203.389C172.784 207.975 166.029 210.5 159.038 210.5H93.75C85.3277 210.5 78.5 203.672 78.5 195.25C78.5 183.514 68.9861 174 57.25 174H32C15.9837 174 3 161.016 3 145V81C3 64.9837 15.9837 52 32 52Z" stroke="black" stroke-width="6"/>
<path d="M155.5 179C150.806 179 147 182.582 147 187C147 191.418 150.806 195 155.5 195C160.194 195 164 191.418 164 187C164 182.582 160.194 179 155.5 179Z" fill="#ED323D"/>
<path d="M114 195H133C137.418 195 141 191.418 141 187C141 182.582 137.418 179 133 179H114C109.582 179 106 182.582 106 187C106 191.418 109.582 195 114 195Z" fill="#2EB335"/>
<path d="M216 68H64C43.0132 68 26 85.0132 26 106C26 126.987 43.0132 144 64 144H216C236.987 144 254 126.987 254 106C254 85.0132 236.987 68 216 68Z" fill="#2EB335"/>
<path d="M216 68H64C43.0132 68 26 85.0132 26 106C26 126.987 43.0132 144 64 144H216C236.987 144 254 126.987 254 106C254 85.0132 236.987 68 216 68Z" stroke="black" stroke-width="4"/>
<path d="M344 106C344 85.0132 326.987 68 306 68C285.013 68 268 85.0132 268 106C268 126.987 285.013 144 306 144C326.987 144 344 126.987 344 106Z" fill="#2EB335"/>
<path d="M344 106C344 85.0132 326.987 68 306 68C285.013 68 268 85.0132 268 106C268 126.987 285.013 144 306 144C326.987 144 344 126.987 344 106Z" stroke="black" stroke-width="4"/>
<path d="M299 120L313 106L299 92" stroke="black" stroke-width="6" stroke-linecap="round" stroke-linejoin="round"/>
</g>
<defs>
<clipPath id="clip0_210_617">
<rect width="370" height="214" fill="white"/>
</clipPath>
</defs>
</svg>
